<mxfile host="app.diagrams.net" modified="2020-12-05T11:51:54.248Z" agent="5.0 (Macintosh; Intel Mac OS X 10_15_7) AppleWebKit/537.36 (KHTML, like Gecko) Chrome/87.0.4280.67 Safari/537.36" etag="qQnmcz4UTM39UM9lHiTr" version="13.10.9" type="github">
  <diagram id="H4SSjCymd0ZZ48-rM7Cr" name="Page-1">
    <mxGraphModel dx="822" dy="1027" grid="1" gridSize="10" guides="1" tooltips="1" connect="1" arrows="1" fold="1" page="1" pageScale="1" pageWidth="827" pageHeight="1169" math="0" shadow="0">
      <root>
        <mxCell id="0" />
        <mxCell id="1" parent="0" />
        <mxCell id="WA83NnyDRcnUzadPlLup-3" value="" style="rounded=0;whiteSpace=wrap;html=1;direction=south;" vertex="1" parent="1">
          <mxGeometry x="170" y="84" width="450" height="500" as="geometry" />
        </mxCell>
        <mxCell id="WA83NnyDRcnUzadPlLup-4" value="" style="ellipse;whiteSpace=wrap;html=1;" vertex="1" parent="1">
          <mxGeometry x="335" y="160" width="120" height="80" as="geometry" />
        </mxCell>
        <mxCell id="WA83NnyDRcnUzadPlLup-5" value="&lt;font style=&quot;font-size: 22px&quot;&gt;Vet Practice&lt;/font&gt;" style="text;html=1;strokeColor=none;fillColor=none;align=center;verticalAlign=middle;whiteSpace=wrap;rounded=0;" vertex="1" parent="1">
          <mxGeometry x="230" y="100" width="70" height="30" as="geometry" />
        </mxCell>
        <mxCell id="WA83NnyDRcnUzadPlLup-6" value="" style="ellipse;whiteSpace=wrap;html=1;" vertex="1" parent="1">
          <mxGeometry x="335" y="270" width="120" height="80" as="geometry" />
        </mxCell>
        <mxCell id="WA83NnyDRcnUzadPlLup-7" value="" style="ellipse;whiteSpace=wrap;html=1;" vertex="1" parent="1">
          <mxGeometry x="335" y="380" width="120" height="80" as="geometry" />
        </mxCell>
        <mxCell id="WA83NnyDRcnUzadPlLup-8" value="&lt;font style=&quot;font-size: 16px&quot;&gt;Register Animal&lt;/font&gt;" style="text;html=1;strokeColor=none;fillColor=none;align=center;verticalAlign=middle;whiteSpace=wrap;rounded=0;" vertex="1" parent="1">
          <mxGeometry x="374" y="190" width="40" height="20" as="geometry" />
        </mxCell>
        <mxCell id="WA83NnyDRcnUzadPlLup-9" value="&lt;font style=&quot;font-size: 20px&quot;&gt;Management&lt;/font&gt;" style="shape=umlActor;verticalLabelPosition=bottom;verticalAlign=top;html=1;outlineConnect=0;" vertex="1" parent="1">
          <mxGeometry x="60" y="290" width="30" height="60" as="geometry" />
        </mxCell>
        <mxCell id="WA83NnyDRcnUzadPlLup-10" value="&lt;font style=&quot;font-size: 16px&quot;&gt;Amend Entry Details&lt;/font&gt;" style="text;html=1;strokeColor=none;fillColor=none;align=center;verticalAlign=middle;whiteSpace=wrap;rounded=0;" vertex="1" parent="1">
          <mxGeometry x="375" y="300" width="40" height="20" as="geometry" />
        </mxCell>
        <mxCell id="WA83NnyDRcnUzadPlLup-11" value="&lt;span style=&quot;font-size: 16px&quot;&gt;Delete&amp;nbsp;&lt;/span&gt;" style="text;html=1;strokeColor=none;fillColor=none;align=center;verticalAlign=middle;whiteSpace=wrap;rounded=0;" vertex="1" parent="1">
          <mxGeometry x="375" y="410" width="40" height="20" as="geometry" />
        </mxCell>
        <mxCell id="WA83NnyDRcnUzadPlLup-12" value="" style="shape=image;verticalLabelPosition=bottom;labelBackgroundColor=#ffffff;verticalAlign=top;aspect=fixed;imageAspect=0;image=https://d2gg9evh47fn9z.cloudfront.net/800px_COLOURBOX34484689.jpg;" vertex="1" parent="1">
          <mxGeometry x="660" y="255" width="130" height="130" as="geometry" />
        </mxCell>
        <mxCell id="WA83NnyDRcnUzadPlLup-19" value="" style="endArrow=none;html=1;" edge="1" parent="1" source="WA83NnyDRcnUzadPlLup-4">
          <mxGeometry width="50" height="50" relative="1" as="geometry">
            <mxPoint x="410" y="500" as="sourcePoint" />
            <mxPoint x="110" y="320" as="targetPoint" />
          </mxGeometry>
        </mxCell>
        <mxCell id="WA83NnyDRcnUzadPlLup-20" value="" style="endArrow=none;html=1;exitX=0;exitY=0.5;exitDx=0;exitDy=0;" edge="1" parent="1" source="WA83NnyDRcnUzadPlLup-6">
          <mxGeometry width="50" height="50" relative="1" as="geometry">
            <mxPoint x="384" y="218.45070422535218" as="sourcePoint" />
            <mxPoint x="120" y="330" as="targetPoint" />
          </mxGeometry>
        </mxCell>
        <mxCell id="WA83NnyDRcnUzadPlLup-21" value="" style="endArrow=none;html=1;" edge="1" parent="1" source="WA83NnyDRcnUzadPlLup-7">
          <mxGeometry width="50" height="50" relative="1" as="geometry">
            <mxPoint x="344.9999999999998" y="320" as="sourcePoint" />
            <mxPoint x="130" y="340" as="targetPoint" />
          </mxGeometry>
        </mxCell>
        <mxCell id="WA83NnyDRcnUzadPlLup-22" value="" style="endArrow=none;html=1;" edge="1" parent="1" source="WA83NnyDRcnUzadPlLup-4">
          <mxGeometry width="50" height="50" relative="1" as="geometry">
            <mxPoint x="354.28561051950373" y="231.37548647525023" as="sourcePoint" />
            <mxPoint x="650" y="296" as="targetPoint" />
          </mxGeometry>
        </mxCell>
        <mxCell id="WA83NnyDRcnUzadPlLup-23" value="" style="endArrow=none;html=1;exitX=1;exitY=0.5;exitDx=0;exitDy=0;" edge="1" parent="1" source="WA83NnyDRcnUzadPlLup-6" target="WA83NnyDRcnUzadPlLup-12">
          <mxGeometry width="50" height="50" relative="1" as="geometry">
            <mxPoint x="364.28561051950373" y="241.37548647525023" as="sourcePoint" />
            <mxPoint x="130" y="340" as="targetPoint" />
          </mxGeometry>
        </mxCell>
        <mxCell id="WA83NnyDRcnUzadPlLup-25" value="" style="endArrow=none;html=1;exitX=0.672;exitY=0.356;exitDx=0;exitDy=0;exitPerimeter=0;entryX=-0.043;entryY=0.644;entryDx=0;entryDy=0;entryPerimeter=0;" edge="1" parent="1" source="WA83NnyDRcnUzadPlLup-3" target="WA83NnyDRcnUzadPlLup-12">
          <mxGeometry width="50" height="50" relative="1" as="geometry">
            <mxPoint x="469.9999999999998" y="350" as="sourcePoint" />
            <mxPoint x="675" y="357.5925925925926" as="targetPoint" />
          </mxGeometry>
        </mxCell>
      </root>
    </mxGraphModel>
  </diagram>
</mxfile>
